<?xml version="1.0" encoding="utf-8"?>
<!-- Generator: Adobe Illustrator 18.1.0, SVG Export Plug-In . SVG Version: 6.00 Build 0)  -->
<svg version="1.1" id="Layer_1" xmlns="http://www.w3.org/2000/svg" xmlns:xlink="http://www.w3.org/1999/xlink" x="0px" y="0px"
	 viewBox="12 560.2 866 71.4" enable-background="new 12 560.2 866 71.4" xml:space="preserve">
<g display="none" opacity="5.000000e-02">
	<path display="inline" d="M588.4,597.7c0,19.9-14,33.8-33.5,33.8c-19.5,0-33.6-13.9-33.6-33.8c0-18.6,16.1-31.6,33.6-31.6
		C572.3,566.2,588.4,579.2,588.4,597.7z M537.8,597.8c0,10.5,7.7,18.3,17.1,18.3c9.4,0,17.1-7.7,17.1-18.3c0-8.5-7.7-16.2-17.1-16.2
		C545.5,581.6,537.8,589.4,537.8,597.8z M79.9,627.3l-21.2-56.9c-0.4-1.2-1.9-2.2-3.1-2.2H43c-1.3,0-2.7,1-3.2,2.2l-21.7,56.9
		c-0.5,1.2,0.2,2.2,1.5,2.2h12.1c1.3,0,2.7-1,3.2-2.2l3.3-8.5H60l3.1,8.4c0.4,1.2,1.9,2.3,3.1,2.3h12.2
		C79.7,629.6,80.4,628.5,79.9,627.3z M42.6,606.7l6.5-19.5h0.2l6.4,19.5H42.6z M243.8,627.3l-21.2-56.9c-0.5-1.2-1.9-2.2-3.2-2.2
		h-12.6c-1.2,0-2.7,1-3.2,2.2L182,627.3c-0.4,1.2,0.3,2.2,1.5,2.2h12.1c1.3,0,2.7-1,3.2-2.2l3.3-8.5h21.7l3.2,8.4
		c0.4,1.2,1.8,2.3,3.1,2.3h12.2C243.6,629.6,244.3,628.5,243.8,627.3L243.8,627.3z M206.5,606.7l6.5-19.5h0.2l6.4,19.5H206.5z
		 M800.3,627.3l-21.2-56.9c-0.5-1.2-1.9-2.2-3.2-2.2h-12.6c-1.2,0-2.7,1-3.2,2.2l-21.6,56.9c-0.5,1.2,0.2,2.2,1.5,2.2h12.1
		c1.2,0,2.7-1,3.2-2.2l3.3-8.5h21.6l3.2,8.4c0.4,1.2,1.8,2.3,3,2.3h12.3C800,629.6,800.7,628.5,800.3,627.3L800.3,627.3z M763,606.7
		l6.4-19.5h0.2l6.5,19.5H763L763,606.7z M345.1,627.2l-8.5-56.7c-0.2-1.3-1.4-2.3-2.6-2.3h-11.1c-1.3,0-2.7,0.9-3.2,2.2l-12,30.6
		L296,570.4c-0.4-1.2-1.8-2.2-3.1-2.2H282c-1.3,0-2.4,1-2.7,2.3l-9.5,56.7c-0.2,1.3,0.6,2.4,1.9,2.4h11.1c1.2,0,2.5-1.1,2.6-2.4
		l4.9-33h0.2l13,33.2c0.4,1.2,1.9,2.2,3.1,2.2h1.7c1.3,0,2.7-1,3.2-2.2l13.8-33.2h0.1l4.1,33c0.1,1.3,1.3,2.4,2.6,2.4h11.1
		C344.3,629.6,345.2,628.5,345.1,627.2L345.1,627.2z M496,627.2l-8.4-56.7c-0.3-1.3-1.4-2.3-2.8-2.3h-11.1c-1.2,0-2.7,0.9-3.1,2.2
		L458.5,601l-11.5-30.6c-0.5-1.2-1.9-2.2-3.2-2.2h-10.9c-1.2,0-2.5,1-2.7,2.3l-9.5,56.7c-0.2,1.3,0.6,2.4,1.9,2.4h11.1
		c1.3,0,2.5-1.1,2.7-2.4l4.8-33h0.1l12.9,33.2c0.5,1.2,2,2.2,3.2,2.2h1.6c1.4,0,2.7-1,3.2-2.2l13.8-33.2h0.1l4.1,33
		c0.1,1.3,1.4,2.4,2.6,2.4H494C495.3,629.6,496.2,628.5,496,627.2L496,627.2z M651.3,568.2h-37.2c-1.3,0-2.3,1-2.3,2.3v8.9
		c0,1.3,1,2.3,2.3,2.3h10.7v45.5c0,1.3,1.1,2.4,2.3,2.4h11.1c1.4,0,2.4-1.1,2.4-2.4v-45.5h10.7c1.3,0,2.3-1,2.3-2.3v-8.9
		C653.6,569.2,652.7,568.2,651.3,568.2z M717.8,568.2h-37.3c-1.3,0-2.3,1-2.3,2.3v8.9c0,1.3,1,2.3,2.3,2.3h10.6v45.5
		c0,1.3,1.2,2.4,2.3,2.4h11.2c1.3,0,2.3-1.1,2.3-2.4v-45.5h10.8c1.2,0,2.2-1,2.2-2.3v-8.9C720,569.2,719,568.2,717.8,568.2
		L717.8,568.2z M875.7,568.2h-11.1c-1.2,0-2.2,1-2.2,2.3v30c0,7.9-0.6,16.7-10.8,16.7c-10.1,0-10.8-8.7-10.8-16.7v-30
		c0-1.3-1-2.3-2.2-2.3h-11.3c-1.2,0-2.2,1-2.2,2.3v32.2c0,7.9,0.3,15.7,6.3,21.6c5.1,5.1,13.1,6.8,20.2,6.8c7.1,0,15.1-1.8,20.1-6.8
		c6-5.9,6.3-13.7,6.3-21.6v-32.2C878,569.3,877,568.2,875.7,568.2z M129.7,568.2h-20.1c-1.3,0-2.3,1-2.3,2.3v56.7
		c0,1.3,1.1,2.4,2.3,2.4h20.1c16.8,0,30.8-13.5,30.8-30.7C160.5,581.6,146.6,568.2,129.7,568.2z M126.6,616H123v-34.3h3.7
		c10.1,0,17.3,6.2,17.3,17.2C144.1,610.8,136,616,126.6,616z"/>
</g>
<g display="none">
	<path display="inline" fill="#F7F7F7" d="M582.4,591.7c0,19.9-14,33.8-33.5,33.8c-19.5,0-33.6-13.9-33.6-33.8
		c0-18.6,16.1-31.6,33.6-31.6C566.3,560.2,582.4,573.2,582.4,591.7z M531.8,591.8c0,10.5,7.7,18.3,17.1,18.3
		c9.4,0,17.1-7.7,17.1-18.3c0-8.5-7.7-16.2-17.1-16.2C539.5,575.6,531.8,583.4,531.8,591.8z M73.9,621.3l-21.2-56.9
		c-0.4-1.2-1.9-2.2-3.1-2.2H37c-1.3,0-2.7,1-3.2,2.2l-21.7,56.9c-0.5,1.2,0.2,2.2,1.5,2.2h12.1c1.3,0,2.7-1,3.2-2.2l3.3-8.5H54
		l3.1,8.4c0.4,1.2,1.9,2.3,3.1,2.3h12.2C73.7,623.6,74.4,622.5,73.9,621.3z M36.6,600.7l6.5-19.5h0.2l6.4,19.5H36.6z M237.8,621.3
		l-21.2-56.9c-0.5-1.2-1.9-2.2-3.2-2.2h-12.6c-1.2,0-2.7,1-3.2,2.2L176,621.3c-0.4,1.2,0.3,2.2,1.5,2.2h12.1c1.3,0,2.7-1,3.2-2.2
		l3.3-8.5h21.7l3.2,8.4c0.4,1.2,1.8,2.3,3.1,2.3h12.2C237.6,623.6,238.3,622.5,237.8,621.3L237.8,621.3z M200.5,600.7l6.5-19.5h0.2
		l6.4,19.5H200.5z M794.3,621.3l-21.2-56.9c-0.5-1.2-1.9-2.2-3.2-2.2h-12.6c-1.2,0-2.7,1-3.2,2.2l-21.6,56.9
		c-0.5,1.2,0.2,2.2,1.5,2.2h12.1c1.2,0,2.7-1,3.2-2.2l3.3-8.5h21.6l3.2,8.4c0.4,1.2,1.8,2.3,3,2.3h12.3
		C794,623.6,794.7,622.5,794.3,621.3L794.3,621.3z M757,600.7l6.4-19.5h0.2l6.5,19.5H757L757,600.7z M339.1,621.2l-8.5-56.7
		c-0.2-1.3-1.4-2.3-2.6-2.3h-11.1c-1.3,0-2.7,0.9-3.2,2.2l-12,30.6L290,564.4c-0.4-1.2-1.8-2.2-3.1-2.2H276c-1.3,0-2.4,1-2.7,2.3
		l-9.5,56.7c-0.2,1.3,0.6,2.4,1.9,2.4h11.1c1.2,0,2.5-1.1,2.6-2.4l4.9-33h0.2l13,33.2c0.4,1.2,1.9,2.2,3.1,2.2h1.7
		c1.3,0,2.7-1,3.2-2.2l13.8-33.2h0.1l4.1,33c0.1,1.3,1.3,2.4,2.6,2.4h11.1C338.3,623.6,339.2,622.5,339.1,621.2z M490,621.2
		l-8.4-56.7c-0.3-1.3-1.4-2.3-2.8-2.3h-11.1c-1.2,0-2.7,0.9-3.1,2.2L452.5,595L441,564.4c-0.5-1.2-1.9-2.2-3.2-2.2h-10.9
		c-1.2,0-2.5,1-2.7,2.3l-9.5,56.7c-0.2,1.3,0.6,2.4,1.9,2.4h11.1c1.3,0,2.5-1.1,2.7-2.4l4.8-33h0.1l12.9,33.2c0.5,1.2,2,2.2,3.2,2.2
		h1.6c1.4,0,2.7-1,3.2-2.2l13.8-33.2h0.1l4.1,33c0.1,1.3,1.4,2.4,2.6,2.4H488C489.3,623.6,490.2,622.5,490,621.2L490,621.2z
		 M645.3,562.2h-37.2c-1.3,0-2.3,1-2.3,2.3v8.9c0,1.3,1,2.3,2.3,2.3h10.7v45.5c0,1.3,1.1,2.4,2.3,2.4h11.1c1.4,0,2.4-1.1,2.4-2.4
		v-45.5h10.7c1.3,0,2.3-1,2.3-2.3v-8.9C647.6,563.2,646.7,562.2,645.3,562.2z M711.8,562.2h-37.3c-1.3,0-2.3,1-2.3,2.3v8.9
		c0,1.3,1,2.3,2.3,2.3h10.6v45.5c0,1.3,1.2,2.4,2.3,2.4h11.2c1.3,0,2.3-1.1,2.3-2.4v-45.5h10.8c1.2,0,2.2-1,2.2-2.3v-8.9
		C714,563.2,713,562.2,711.8,562.2L711.8,562.2z M869.7,562.2h-11.1c-1.2,0-2.2,1-2.2,2.3v30c0,7.9-0.6,16.7-10.8,16.7
		c-10.1,0-10.8-8.7-10.8-16.7v-30c0-1.3-1-2.3-2.2-2.3h-11.3c-1.2,0-2.2,1-2.2,2.3v32.2c0,7.9,0.3,15.7,6.3,21.6
		c5.1,5.1,13.1,6.8,20.2,6.8c7.1,0,15.1-1.8,20.1-6.8c6-5.9,6.3-13.7,6.3-21.6v-32.2C872,563.3,871,562.2,869.7,562.2z M123.7,562.2
		h-20.1c-1.3,0-2.3,1-2.3,2.3v56.7c0,1.3,1.1,2.4,2.3,2.4h20.1c16.8,0,30.8-13.5,30.8-30.7C154.5,575.6,140.6,562.2,123.7,562.2z
		 M120.6,610H117v-34.3h3.7c10.1,0,17.3,6.2,17.3,17.2C138.1,604.8,130,610,120.6,610z"/>
</g>
<text transform="matrix(1 0 0 1 84.9394 627.3159)" fill="#888888" font-family="'FeaturedItem'" font-size="82.0169" letter-spacing="70">PAU VILA</text>
<text transform="matrix(1 0 0 1 80.9394 625.5499)" fill="#CCCCCC" font-family="'FeaturedItem'" font-size="82.0169" letter-spacing="70">PAU VILA</text>
</svg>
